<svg xmlns="http://www.w3.org/2000/svg" xmlns:xlink="http://www.w3.org/1999/xlink" width="500" zoomAndPan="magnify" viewBox="0 0 375 187.499995" height="250" preserveAspectRatio="xMidYMid meet" version="1.0"><defs><clipPath id="7fe7697be1"><path d="M 115.582031 80.835938 L 204 80.835938 L 204 174.613281 L 115.582031 174.613281 Z M 115.582031 80.835938 " clip-rule="nonzero"/></clipPath><clipPath id="cd766759aa"><path d="M 197.632812 131.675781 C 196.949219 133.152344 196.324219 134.71875 195.738281 136.21875 C 192.628906 144.1875 190.503906 152.46875 188.5 160.765625 C 187.9375 158.335938 187.332031 155.921875 186.683594 153.5 C 180.660156 131.480469 169.441406 100.679688 149.929688 87.433594 C 141.289062 81.804688 130.019531 80.132812 119.921875 81.261719 L 115.585938 81.261719 C 115.585938 81.261719 116.695312 85.695312 116.695312 85.695312 C 118.902344 93.804688 122.816406 101.410156 127.816406 108.132812 C 130.816406 112.136719 134.285156 115.808594 138.167969 118.96875 C 148.351562 127.128906 160.839844 131.765625 173.636719 133.496094 C 176.996094 140.9375 179.835938 148.339844 182.230469 154.878906 C 184.453125 161.085938 186.515625 167.6875 188.3125 174.054688 L 189.992188 168.796875 C 193.832031 157.109375 197.417969 145.214844 203.34375 134.382812 C 204.992188 130.515625 199.566406 127.964844 197.632812 131.675781 M 140.414062 112.816406 C 133.453125 106.195312 128.320312 97.742188 125.183594 88.691406 C 132.242188 89.121094 139.382812 90.648438 145.351562 94.414062 C 156.085938 101.679688 164.503906 114.605469 171.101562 128.113281 C 159.84375 125.65625 148.761719 120.742188 140.40625 112.816406 " clip-rule="nonzero"/></clipPath><clipPath id="d75a10da2f"><path d="M 169.089844 21.578125 L 259.414062 21.578125 L 259.414062 128 L 169.089844 128 Z M 169.089844 21.578125 " clip-rule="nonzero"/></clipPath><clipPath id="93da60bb7f"><path d="M 254.265625 81.566406 C 242.953125 81.546875 232.117188 86.519531 223.492188 93.585938 C 216.695312 99.175781 210.925781 106.027344 206.492188 113.628906 C 205.695312 115.007812 204.9375 116.417969 204.238281 117.859375 C 202.417969 117.15625 200.648438 116.28125 198.984375 115.179688 C 196.371094 113.523438 194.191406 111.554688 192.167969 109.210938 C 193.855469 107.011719 195.375 104.683594 196.746094 102.285156 C 202.347656 92.410156 205.492188 81.1875 206.109375 69.863281 C 206.378906 65.402344 206.199219 60.859375 205.433594 56.441406 C 203.5 45.140625 198.558594 34.441406 191.75 25.265625 C 191.460938 24.902344 191.074219 24.378906 190.769531 24.019531 C 190.769531 24.019531 190.820312 23.972656 190.820312 23.972656 L 188.828125 21.578125 L 186.640625 23.886719 C 183.847656 26.851562 181.441406 30.167969 179.300781 33.625 C 173.703125 42.664062 170.070312 53.066406 169.433594 63.726562 C 168.4375 81.390625 173.40625 99.941406 185.203125 113.484375 C 190.566406 120.167969 198.226562 125.019531 206.625 126.773438 C 217.058594 129.082031 228.28125 126.621094 237.078125 120.652344 C 247.253906 113.636719 254.542969 102.773438 257.835938 90.929688 C 258.3125 89.203125 258.699219 87.421875 258.96875 85.644531 C 259.050781 85.039062 259.339844 82.714844 259.414062 82.070312 C 257.839844 81.878906 255.867188 81.5625 254.265625 81.574219 M 186.613281 27.613281 C 186.625 27.625 186.640625 27.640625 186.652344 27.660156 C 186.648438 27.660156 186.5625 27.660156 186.5625 27.660156 C 186.5625 27.660156 186.613281 27.613281 186.613281 27.613281 M 176.847656 62.707031 C 177.46875 51.050781 181.914062 39.757812 188.726562 30.324219 C 194.304688 37.960938 198.542969 46.664062 200.585938 55.910156 C 201.714844 60.875 201.996094 66 201.730469 71.078125 C 201.226562 81.34375 198.523438 91.523438 193.671875 100.589844 C 192.558594 102.648438 191.339844 104.65625 190 106.574219 C 180.359375 94.246094 176.21875 78.304688 176.851562 62.707031 M 237.34375 111.460938 C 229.910156 118.042969 219.464844 121.046875 209.828125 119.394531 C 213.375 112.359375 218.285156 105.992188 224.003906 100.597656 C 231.804688 93.257812 242.019531 87.5625 252.859375 87.152344 C 250.222656 96.53125 244.738281 105.152344 237.347656 111.46875 " clip-rule="nonzero"/></clipPath></defs><g clip-path="url(#7fe7697be1)"><g clip-path="url(#cd766759aa)"><path fill="#8cc63f" d="M 112.707031 18.699219 L 262.292969 18.699219 L 262.292969 176.914062 L 112.707031 176.914062 Z M 112.707031 18.699219 " fill-opacity="1" fill-rule="nonzero"/></g></g><g clip-path="url(#d75a10da2f)"><g clip-path="url(#93da60bb7f)"><path fill="#8cc63f" d="M 112.707031 18.699219 L 262.292969 18.699219 L 262.292969 176.914062 L 112.707031 176.914062 Z M 112.707031 18.699219 " fill-opacity="1" fill-rule="nonzero"/></g></g></svg>