<svg xmlns="http://www.w3.org/2000/svg" xmlns:xlink="http://www.w3.org/1999/xlink" width="500" zoomAndPan="magnify" viewBox="0 0 375 187.499995" height="250" preserveAspectRatio="xMidYMid meet" version="1.0"><defs><clipPath id="934632a1be"><path d="M 60.320312 120.382812 L 66.054688 120.382812 L 66.054688 126.117188 L 60.320312 126.117188 Z M 60.320312 120.382812 " clip-rule="nonzero"/></clipPath><clipPath id="518ab2bfc6"><path d="M 63.179688 120.382812 C 61.597656 120.382812 60.320312 121.660156 60.320312 123.242188 C 60.320312 124.820312 61.597656 126.097656 63.179688 126.097656 C 64.757812 126.097656 66.035156 124.820312 66.035156 123.242188 C 66.035156 121.660156 64.757812 120.382812 63.179688 120.382812 " clip-rule="nonzero"/></clipPath><clipPath id="89feb49640"><path d="M 26.507812 141.484375 L 66.378906 141.484375 L 66.378906 183.304688 L 26.507812 183.304688 Z M 26.507812 141.484375 " clip-rule="nonzero"/></clipPath><clipPath id="f47aaf49bf"><path d="M 66.265625 141.488281 L 47.765625 183.128906 L 45.003906 183.128906 L 26.679688 141.488281 L 35.667969 141.488281 L 46.535156 166.921875 L 57.8125 141.488281 Z M 66.265625 141.488281 " clip-rule="nonzero"/></clipPath><clipPath id="0ed679029a"><path d="M 67 141 L 108 141 L 108 182.722656 L 67 182.722656 Z M 67 141 " clip-rule="nonzero"/></clipPath><clipPath id="7747619385"><path d="M 67.148438 182.71875 L 86.234375 141.078125 L 88.992188 141.078125 L 107.964844 182.71875 L 99.214844 182.71875 L 96.105469 176.023438 L 79.074219 176.023438 L 75.957031 182.71875 Z M 81.886719 169.445312 L 93.226562 169.445312 L 87.582031 156.171875 Z M 81.886719 169.445312 " clip-rule="nonzero"/></clipPath><clipPath id="76692b8ed1"><path d="M 89.523438 116.40625 L 92.28125 116.40625 L 92.28125 128.398438 L 89.523438 128.398438 Z M 89.523438 128.398438 L 98.167969 128.398438 L 98.167969 130.71875 L 89.523438 130.71875 Z M 89.523438 128.398438 " clip-rule="nonzero"/></clipPath><clipPath id="f73bd99ed0"><path d="M 119.910156 116.265625 L 134.132812 116.265625 L 134.132812 130.765625 L 119.910156 130.765625 Z M 119.910156 116.265625 " clip-rule="nonzero"/></clipPath><clipPath id="8897068ac6"><path d="M 119.910156 130.714844 L 126.535156 116.265625 L 127.496094 116.265625 L 134.082031 130.714844 L 131.039062 130.714844 L 129.957031 128.394531 L 124.050781 128.394531 L 122.972656 130.714844 Z M 125.023438 126.109375 L 128.964844 126.109375 L 127.007812 121.503906 Z M 125.023438 126.109375 " clip-rule="nonzero"/></clipPath><clipPath id="53da460101"><path d="M 118.945312 141.488281 L 126.871094 141.488281 L 126.871094 176.027344 L 118.945312 176.027344 Z M 118.945312 176.027344 L 143.84375 176.027344 L 143.84375 182.722656 L 118.945312 182.722656 Z M 118.945312 176.027344 " clip-rule="nonzero"/></clipPath><clipPath id="cab7c579e1"><path d="M 152.78125 116.40625 L 166.519531 116.40625 L 166.519531 130.898438 L 152.78125 130.898438 Z M 152.78125 116.40625 " clip-rule="nonzero"/></clipPath><clipPath id="48a9a721c5"><path d="M 166.519531 116.40625 L 160.101562 130.859375 L 159.144531 130.859375 L 152.78125 116.40625 L 155.898438 116.40625 L 159.667969 125.230469 L 163.585938 116.40625 Z M 166.519531 116.40625 " clip-rule="nonzero"/></clipPath><clipPath id="27e0959719"><path d="M 157 141.488281 L 182.722656 141.488281 L 182.722656 148.183594 L 157 148.183594 Z M 157 148.183594 L 164.925781 148.183594 L 164.925781 158.460938 L 157 158.460938 Z M 157 158.460938 L 179.609375 158.460938 L 179.609375 165.160156 L 157 165.160156 Z M 157 165.160156 L 164.925781 165.160156 L 164.925781 176.027344 L 157 176.027344 Z M 157 176.027344 L 183.3125 176.027344 L 183.3125 182.722656 L 157 182.722656 Z M 157 176.027344 " clip-rule="nonzero"/></clipPath><clipPath id="9909027b33"><path d="M 189.035156 116.40625 L 198.167969 116.40625 L 198.167969 130.75 L 189.035156 130.75 Z M 189.035156 116.40625 " clip-rule="nonzero"/></clipPath><clipPath id="f9811f926c"><path d="M 198.167969 128.398438 L 198.167969 130.71875 L 189.035156 130.71875 L 189.035156 116.40625 L 197.96875 116.40625 L 197.96875 118.730469 L 191.792969 118.730469 L 191.792969 122.296875 L 196.882812 122.296875 L 196.882812 124.621094 L 191.792969 124.621094 L 191.792969 128.390625 Z M 198.167969 128.398438 " clip-rule="nonzero"/></clipPath><clipPath id="069c7d37f8"><path d="M 196.933594 140.902344 L 231.414062 140.902344 L 231.414062 183.324219 L 196.933594 183.324219 Z M 196.933594 140.902344 " clip-rule="nonzero"/></clipPath><clipPath id="84332c3895"><path d="M 231.410156 141.488281 L 231.410156 182.777344 L 229.59375 183.300781 L 204.746094 158.222656 L 204.746094 182.722656 L 196.933594 182.722656 L 196.933594 141.425781 L 198.753906 140.902344 L 223.539062 165.980469 L 223.539062 141.488281 Z M 231.410156 141.488281 " clip-rule="nonzero"/></clipPath><clipPath id="d6beb5b4ef"><path d="M 221.253906 116.40625 L 224.011719 116.40625 L 224.011719 128.398438 L 221.253906 128.398438 Z M 221.253906 128.398438 L 229.902344 128.398438 L 229.902344 130.71875 L 221.253906 130.71875 Z M 221.253906 128.398438 " clip-rule="nonzero"/></clipPath><clipPath id="0ff5f94e5c"><path d="M 147.289062 41.71875 L 204.214844 41.71875 L 204.214844 101.765625 L 147.289062 101.765625 Z M 147.289062 41.71875 " clip-rule="nonzero"/></clipPath><clipPath id="7f0dc9bbba"><path d="M 200.175781 74.355469 C 199.734375 75.300781 199.339844 76.296875 198.960938 77.265625 C 196.972656 82.367188 195.609375 87.667969 194.324219 92.976562 C 193.96875 91.421875 193.574219 89.875 193.164062 88.324219 C 189.308594 74.230469 182.125 54.507812 169.632812 46.03125 C 164.097656 42.425781 156.890625 41.355469 150.421875 42.078125 L 147.648438 42.078125 C 147.648438 42.078125 148.359375 44.917969 148.359375 44.917969 C 149.769531 50.105469 152.277344 54.972656 155.480469 59.285156 C 157.402344 61.847656 159.625 64.199219 162.109375 66.21875 C 168.625 71.445312 176.621094 74.410156 184.8125 75.523438 C 186.960938 80.285156 188.78125 85.027344 190.3125 89.214844 C 191.738281 93.1875 193.054688 97.414062 194.207031 101.492188 L 195.285156 98.125 C 197.746094 90.640625 200.035156 83.023438 203.828125 76.097656 C 204.882812 73.621094 201.414062 71.984375 200.175781 74.363281 M 163.539062 62.28125 C 159.082031 58.039062 155.800781 52.636719 153.789062 46.835938 C 158.308594 47.109375 162.875 48.089844 166.699219 50.5 C 173.5625 55.152344 178.953125 63.425781 183.183594 72.070312 C 175.980469 70.492188 168.882812 67.347656 163.539062 62.28125 " clip-rule="nonzero"/></clipPath><clipPath id="beab844674"><path d="M 182 3.507812 L 240 3.507812 L 240 72 L 182 72 Z M 182 3.507812 " clip-rule="nonzero"/></clipPath><clipPath id="703817ef67"><path d="M 236.425781 42.269531 C 229.179688 42.253906 222.242188 45.4375 216.726562 49.964844 C 212.375 53.539062 208.683594 57.929688 205.839844 62.796875 C 205.332031 63.679688 204.84375 64.585938 204.402344 65.507812 C 203.234375 65.058594 202.101562 64.492188 201.035156 63.789062 C 199.363281 62.726562 197.960938 61.464844 196.667969 59.964844 C 197.746094 58.554688 198.71875 57.070312 199.59375 55.53125 C 203.179688 49.207031 205.191406 42.023438 205.585938 34.777344 C 205.757812 31.921875 205.648438 29.011719 205.152344 26.1875 C 203.914062 18.949219 200.75 12.105469 196.390625 6.222656 C 196.203125 5.992188 195.957031 5.660156 195.761719 5.425781 C 195.761719 5.425781 195.800781 5.394531 195.792969 5.394531 L 194.539062 3.871094 L 193.140625 5.347656 C 191.351562 7.246094 189.8125 9.367188 188.441406 11.578125 C 184.855469 17.371094 182.535156 24.027344 182.125 30.84375 C 181.492188 42.15625 184.664062 54.027344 192.21875 62.699219 C 195.65625 66.976562 200.554688 70.082031 205.933594 71.203125 C 212.613281 72.683594 219.796875 71.109375 225.425781 67.289062 C 231.941406 62.796875 236.601562 55.839844 238.714844 48.261719 C 239.015625 47.15625 239.265625 46.015625 239.441406 44.878906 C 239.496094 44.492188 239.675781 43.003906 239.722656 42.585938 C 238.714844 42.464844 237.453125 42.261719 236.425781 42.269531 M 193.117188 7.734375 C 193.125 7.742188 193.132812 7.757812 193.140625 7.761719 C 193.140625 7.761719 193.085938 7.761719 193.085938 7.761719 C 193.085938 7.761719 193.117188 7.734375 193.117188 7.734375 M 186.871094 30.195312 C 187.273438 22.734375 190.113281 15.503906 194.472656 9.464844 C 198.039062 14.351562 200.757812 19.929688 202.0625 25.84375 C 202.785156 29.027344 202.96875 32.300781 202.800781 35.550781 C 202.472656 42.125 200.75 48.640625 197.636719 54.445312 C 196.925781 55.761719 196.144531 57.046875 195.285156 58.277344 C 189.113281 50.382812 186.460938 40.179688 186.871094 30.195312 M 225.59375 61.414062 C 220.835938 65.625 214.148438 67.550781 207.976562 66.492188 C 210.246094 61.984375 213.394531 57.90625 217.050781 54.453125 C 222.042969 49.753906 228.582031 46.109375 235.527344 45.847656 C 233.839844 51.851562 230.324219 57.371094 225.59375 61.414062 " clip-rule="nonzero"/></clipPath><clipPath id="de8ea3777d"><path d="M 252.820312 116.40625 L 255.578125 116.40625 L 255.578125 128.398438 L 252.820312 128.398438 Z M 252.820312 128.398438 L 261.46875 128.398438 L 261.46875 130.71875 L 252.820312 130.71875 Z M 252.820312 128.398438 " clip-rule="nonzero"/></clipPath><clipPath id="4f51533556"><path d="M 244.390625 140.667969 L 282.480469 140.667969 L 282.480469 183.648438 L 244.390625 183.648438 Z M 244.390625 140.667969 " clip-rule="nonzero"/></clipPath><clipPath id="4202895711"><path d="M 282.332031 176.84375 C 279.808594 179.546875 274.996094 183.539062 266 183.539062 C 253.902344 183.539062 244.390625 174.320312 244.390625 161.984375 C 244.390625 149.011719 254.960938 140.667969 266.355469 140.667969 C 274.816406 140.667969 279.6875 144.480469 282.214844 146.835938 L 277.402344 152.585938 C 275.699219 150.882812 271.882812 147.773438 266.480469 147.773438 C 258.71875 147.773438 252.902344 154.058594 252.902344 161.929688 C 252.902344 169.5625 258.074219 176.320312 266.589844 176.320312 C 271.347656 176.320312 275.628906 173.679688 277.511719 171.683594 Z M 282.332031 176.84375 " clip-rule="nonzero"/></clipPath><clipPath id="873e64d67c"><path d="M 284.390625 116.40625 L 293.523438 116.40625 L 293.523438 130.75 L 284.390625 130.75 Z M 284.390625 116.40625 " clip-rule="nonzero"/></clipPath><clipPath id="d986650ada"><path d="M 293.523438 128.398438 L 293.523438 130.71875 L 284.390625 130.71875 L 284.390625 116.40625 L 293.324219 116.40625 L 293.324219 118.730469 L 287.144531 118.730469 L 287.144531 122.296875 L 292.238281 122.296875 L 292.238281 124.621094 L 287.144531 124.621094 L 287.144531 128.390625 Z M 293.523438 128.398438 " clip-rule="nonzero"/></clipPath><clipPath id="fc551edfef"><path d="M 295.484375 141.488281 L 303.410156 141.488281 L 303.410156 182.722656 L 295.484375 182.722656 Z M 295.484375 141.488281 " clip-rule="nonzero"/></clipPath><clipPath id="040d4570da"><path d="M 314.980469 141.078125 L 355.960938 141.078125 L 355.960938 182.855469 L 314.980469 182.855469 Z M 314.980469 141.078125 " clip-rule="nonzero"/></clipPath><clipPath id="5da85b5b91"><path d="M 314.980469 182.71875 L 334.066406 141.078125 L 336.832031 141.078125 L 355.804688 182.71875 L 347.050781 182.71875 L 343.9375 176.023438 L 326.902344 176.023438 L 323.789062 182.71875 Z M 329.726562 169.445312 L 341.058594 169.445312 L 335.421875 156.171875 Z M 329.726562 169.445312 " clip-rule="nonzero"/></clipPath><clipPath id="f574c2b38a"><path d="M 316.449219 120.382812 L 322.179688 120.382812 L 322.179688 126.117188 L 316.449219 126.117188 Z M 316.449219 120.382812 " clip-rule="nonzero"/></clipPath><clipPath id="5458c675e3"><path d="M 319.304688 120.382812 C 317.722656 120.382812 316.449219 121.660156 316.449219 123.242188 C 316.449219 124.820312 317.722656 126.097656 319.304688 126.097656 C 320.882812 126.097656 322.160156 124.820312 322.160156 123.242188 C 322.160156 121.660156 320.875 120.382812 319.304688 120.382812 " clip-rule="nonzero"/></clipPath></defs><g clip-path="url(#934632a1be)"><g clip-path="url(#518ab2bfc6)"><path fill="#ffffff" d="M 60.320312 120.382812 L 66.03125 120.382812 L 66.03125 126.09375 L 60.320312 126.09375 Z M 60.320312 120.382812 " fill-opacity="1" fill-rule="nonzero"/></g></g><g clip-path="url(#89feb49640)"><g clip-path="url(#f47aaf49bf)"><path fill="#ffffff" d="M 22.808594 137.207031 L 111.894531 137.207031 L 111.894531 187 L 22.808594 187 Z M 22.808594 137.207031 " fill-opacity="1" fill-rule="nonzero"/></g></g><g clip-path="url(#0ed679029a)"><g clip-path="url(#7747619385)"><path fill="#ffffff" d="M 22.808594 137.207031 L 111.894531 137.207031 L 111.894531 187 L 22.808594 187 Z M 22.808594 137.207031 " fill-opacity="1" fill-rule="nonzero"/></g></g><g clip-path="url(#76692b8ed1)"><path fill="#ffffff" d="M 89.523438 116.40625 L 98.167969 116.40625 L 98.167969 130.722656 L 89.523438 130.722656 Z M 89.523438 116.40625 " fill-opacity="1" fill-rule="nonzero"/></g><g clip-path="url(#f73bd99ed0)"><g clip-path="url(#8897068ac6)"><path fill="#ffffff" d="M 119.910156 116.265625 L 134.078125 116.265625 L 134.078125 130.710938 L 119.910156 130.710938 Z M 119.910156 116.265625 " fill-opacity="1" fill-rule="nonzero"/></g></g><g clip-path="url(#53da460101)"><path fill="#ffffff" d="M 118.945312 141.488281 L 143.847656 141.488281 L 143.847656 182.734375 L 118.945312 182.734375 Z M 118.945312 141.488281 " fill-opacity="1" fill-rule="nonzero"/></g><g clip-path="url(#cab7c579e1)"><g clip-path="url(#48a9a721c5)"><path fill="#ffffff" d="M 152.78125 116.40625 L 166.519531 116.40625 L 166.519531 130.847656 L 152.78125 130.847656 Z M 152.78125 116.40625 " fill-opacity="1" fill-rule="nonzero"/></g></g><g clip-path="url(#27e0959719)"><path fill="#ffffff" d="M 157 141.488281 L 183.3125 141.488281 L 183.3125 182.703125 L 157 182.703125 Z M 157 141.488281 " fill-opacity="1" fill-rule="nonzero"/></g><g clip-path="url(#9909027b33)"><g clip-path="url(#f9811f926c)"><path fill="#ffffff" d="M 189.035156 116.40625 L 198.167969 116.40625 L 198.167969 130.714844 L 189.035156 130.714844 Z M 189.035156 116.40625 " fill-opacity="1" fill-rule="nonzero"/></g></g><g clip-path="url(#069c7d37f8)"><g clip-path="url(#84332c3895)"><path fill="#ffffff" d="M 196.933594 140.902344 L 231.414062 140.902344 L 231.414062 183.324219 L 196.933594 183.324219 Z M 196.933594 140.902344 " fill-opacity="1" fill-rule="nonzero"/></g></g><g clip-path="url(#d6beb5b4ef)"><path fill="#ffffff" d="M 221.253906 116.40625 L 229.898438 116.40625 L 229.898438 130.726562 L 221.253906 130.726562 Z M 221.253906 116.40625 " fill-opacity="1" fill-rule="nonzero"/></g><g clip-path="url(#0ff5f94e5c)"><g clip-path="url(#7f0dc9bbba)"><path fill="#8cc63f" d="M 143.777344 0 L 243.59375 0 L 243.59375 105.273438 L 143.777344 105.273438 Z M 143.777344 0 " fill-opacity="1" fill-rule="nonzero"/></g></g><g clip-path="url(#beab844674)"><g clip-path="url(#703817ef67)"><path fill="#8cc63f" d="M 143.777344 0 L 243.59375 0 L 243.59375 105.273438 L 143.777344 105.273438 Z M 143.777344 0 " fill-opacity="1" fill-rule="nonzero"/></g></g><g clip-path="url(#de8ea3777d)"><path fill="#ffffff" d="M 252.820312 116.40625 L 261.464844 116.40625 L 261.464844 130.726562 L 252.820312 130.726562 Z M 252.820312 116.40625 " fill-opacity="1" fill-rule="nonzero"/></g><g clip-path="url(#4f51533556)"><g clip-path="url(#4202895711)"><path fill="#ffffff" d="M 244.390625 140.667969 L 282.332031 140.667969 L 282.332031 183.5 L 244.390625 183.5 Z M 244.390625 140.667969 " fill-opacity="1" fill-rule="nonzero"/></g></g><g clip-path="url(#873e64d67c)"><g clip-path="url(#d986650ada)"><path fill="#ffffff" d="M 284.390625 116.40625 L 293.523438 116.40625 L 293.523438 130.714844 L 284.390625 130.714844 Z M 284.390625 116.40625 " fill-opacity="1" fill-rule="nonzero"/></g></g><g clip-path="url(#fc551edfef)"><path fill="#ffffff" d="M 295.484375 141.488281 L 303.414062 141.488281 L 303.414062 182.714844 L 295.484375 182.714844 Z M 295.484375 141.488281 " fill-opacity="1" fill-rule="nonzero"/></g><g clip-path="url(#040d4570da)"><g clip-path="url(#5da85b5b91)"><path fill="#ffffff" d="M 314.980469 141.078125 L 355.800781 141.078125 L 355.800781 182.695312 L 314.980469 182.695312 Z M 314.980469 141.078125 " fill-opacity="1" fill-rule="nonzero"/></g></g><g clip-path="url(#f574c2b38a)"><g clip-path="url(#5458c675e3)"><path fill="#ffffff" d="M 316.449219 120.382812 L 322.15625 120.382812 L 322.15625 126.09375 L 316.449219 126.09375 Z M 316.449219 120.382812 " fill-opacity="1" fill-rule="nonzero"/></g></g></svg>