<svg xmlns="http://www.w3.org/2000/svg" xmlns:xlink="http://www.w3.org/1999/xlink" width="500" zoomAndPan="magnify" viewBox="0 0 375 187.499995" height="250" preserveAspectRatio="xMidYMid meet" version="1.0"><defs><clipPath id="2e336279b4"><path d="M 52.347656 120.683594 L 58.144531 120.683594 L 58.144531 126.480469 L 52.347656 126.480469 Z M 52.347656 120.683594 " clip-rule="nonzero"/></clipPath><clipPath id="34eacb0665"><path d="M 55.238281 120.683594 C 53.644531 120.683594 52.347656 121.976562 52.347656 123.570312 C 52.347656 125.164062 53.644531 126.457031 55.238281 126.457031 C 56.828125 126.457031 58.125 125.164062 58.125 123.570312 C 58.125 121.976562 56.828125 120.683594 55.238281 120.683594 " clip-rule="nonzero"/></clipPath><clipPath id="2c0b819769"><path d="M 18.289062 142 L 58.449219 142 L 58.449219 184.171875 L 18.289062 184.171875 Z M 18.289062 142 " clip-rule="nonzero"/></clipPath><clipPath id="d4024c5e32"><path d="M 58.363281 142.019531 L 39.65625 184.125 L 36.863281 184.125 L 18.335938 142.019531 L 27.421875 142.019531 L 38.40625 167.734375 L 49.8125 142.019531 Z M 58.363281 142.019531 " clip-rule="nonzero"/></clipPath><clipPath id="1f98ac1162"><path d="M 59.203125 141.558594 L 100.6875 141.558594 L 100.6875 183.796875 L 59.203125 183.796875 Z M 59.203125 141.558594 " clip-rule="nonzero"/></clipPath><clipPath id="0165f7dc02"><path d="M 59.25 183.710938 L 78.550781 141.605469 L 81.339844 141.605469 L 100.519531 183.710938 L 91.675781 183.710938 L 88.527344 176.941406 L 71.304688 176.941406 L 68.15625 183.710938 Z M 74.15625 170.289062 L 85.617188 170.289062 L 79.917969 156.863281 Z M 74.15625 170.289062 " clip-rule="nonzero"/></clipPath><clipPath id="cfab863366"><path d="M 81.875 116.664062 L 84.660156 116.664062 L 84.660156 128.785156 L 81.875 128.785156 Z M 81.875 128.785156 L 90.617188 128.785156 L 90.617188 131.132812 L 81.875 131.132812 Z M 81.875 128.785156 " clip-rule="nonzero"/></clipPath><clipPath id="6a148f2eb4"><path d="M 112.597656 116.519531 L 126.921875 116.519531 L 126.921875 131.179688 L 112.597656 131.179688 Z M 112.597656 116.519531 " clip-rule="nonzero"/></clipPath><clipPath id="378e4f0597"><path d="M 112.597656 131.132812 L 119.296875 116.519531 L 120.265625 116.519531 L 126.921875 131.132812 L 123.851562 131.132812 L 122.761719 128.78125 L 116.777344 128.78125 L 115.6875 131.132812 Z M 117.773438 126.472656 L 121.753906 126.472656 L 119.773438 121.816406 Z M 117.773438 126.472656 " clip-rule="nonzero"/></clipPath><clipPath id="dcab3a448b"><path d="M 111.621094 142.019531 L 119.640625 142.019531 L 119.640625 176.941406 L 111.621094 176.941406 Z M 111.621094 176.941406 L 136.800781 176.941406 L 136.800781 183.710938 L 111.621094 183.710938 Z M 111.621094 176.941406 " clip-rule="nonzero"/></clipPath><clipPath id="f2d0530174"><path d="M 145.832031 116.664062 L 159.78125 116.664062 L 159.78125 131.316406 L 145.832031 131.316406 Z M 145.832031 116.664062 " clip-rule="nonzero"/></clipPath><clipPath id="3e4365244e"><path d="M 159.730469 116.664062 L 153.234375 131.277344 L 152.265625 131.277344 L 145.832031 116.664062 L 148.984375 116.664062 L 152.796875 125.589844 L 156.761719 116.664062 Z M 159.730469 116.664062 " clip-rule="nonzero"/></clipPath><clipPath id="dab88da33d"><path d="M 150.101562 142.019531 L 176.808594 142.019531 L 176.808594 183.796875 L 150.101562 183.796875 Z M 150.101562 142.019531 " clip-rule="nonzero"/></clipPath><clipPath id="cf7ffa5ed4"><path d="M 176.707031 176.941406 L 176.707031 183.710938 L 150.101562 183.710938 L 150.101562 142.019531 L 176.113281 142.019531 L 176.113281 148.789062 L 158.117188 148.789062 L 158.117188 159.183594 L 172.960938 159.183594 L 172.960938 165.953125 L 158.117188 165.953125 L 158.117188 176.9375 Z M 176.707031 176.941406 " clip-rule="nonzero"/></clipPath><clipPath id="4c56f7377e"><path d="M 182.492188 116.664062 L 191.523438 116.664062 L 191.523438 119.015625 L 182.492188 119.015625 Z M 182.492188 119.015625 L 185.277344 119.015625 L 185.277344 122.621094 L 182.492188 122.621094 Z M 182.492188 122.621094 L 190.429688 122.621094 L 190.429688 124.972656 L 182.492188 124.972656 Z M 182.492188 124.972656 L 185.277344 124.972656 L 185.277344 128.785156 L 182.492188 128.785156 Z M 182.492188 128.785156 L 191.730469 128.785156 L 191.730469 131.136719 L 182.492188 131.136719 Z M 182.492188 128.785156 " clip-rule="nonzero"/></clipPath><clipPath id="1918fdad40"><path d="M 190.480469 141.425781 L 225.339844 141.425781 L 225.339844 184.320312 L 190.480469 184.320312 Z M 190.480469 141.425781 " clip-rule="nonzero"/></clipPath><clipPath id="d9a8e1792c"><path d="M 225.339844 142.019531 L 225.339844 183.769531 L 223.496094 184.304688 L 198.375 158.945312 L 198.375 183.710938 L 190.480469 183.710938 L 190.480469 141.960938 L 192.320312 141.425781 L 217.382812 166.785156 L 217.382812 142.019531 Z M 225.339844 142.019531 " clip-rule="nonzero"/></clipPath><clipPath id="c2f215516e"><path d="M 215.070312 116.664062 L 217.851562 116.664062 L 217.851562 128.785156 L 215.070312 128.785156 Z M 215.070312 128.785156 L 223.8125 128.785156 L 223.8125 131.132812 L 215.070312 131.132812 Z M 215.070312 128.785156 " clip-rule="nonzero"/></clipPath><clipPath id="9dcb9c8a84"><path d="M 140.472656 41 L 198 41 L 198 101.9375 L 140.472656 101.9375 Z M 140.472656 41 " clip-rule="nonzero"/></clipPath><clipPath id="cb538fe615"><path d="M 193.753906 74.140625 C 193.308594 75.09375 192.90625 76.105469 192.527344 77.078125 C 190.515625 82.238281 189.140625 87.59375 187.839844 92.964844 C 187.480469 91.394531 187.082031 89.828125 186.667969 88.257812 C 182.773438 74.007812 175.511719 54.066406 162.878906 45.5 C 157.285156 41.851562 149.996094 40.777344 143.457031 41.5 L 140.644531 41.5 C 140.644531 41.5 141.363281 44.371094 141.363281 44.371094 C 142.792969 49.617188 145.328125 54.539062 148.558594 58.898438 C 150.496094 61.488281 152.746094 63.867188 155.261719 65.910156 C 161.855469 71.1875 169.9375 74.191406 178.21875 75.3125 C 180.394531 80.125 182.234375 84.921875 183.78125 89.15625 C 185.21875 93.175781 186.550781 97.445312 187.714844 101.566406 L 188.800781 98.164062 C 191.285156 90.601562 193.609375 82.898438 197.445312 75.886719 C 198.507812 73.386719 195 71.734375 193.746094 74.132812 M 156.710938 61.925781 C 152.207031 57.640625 148.882812 52.167969 146.851562 46.308594 C 151.417969 46.585938 156.042969 47.582031 159.90625 50.011719 C 166.855469 54.71875 172.300781 63.085938 176.574219 71.828125 C 169.289062 70.234375 162.117188 67.058594 156.710938 61.925781 " clip-rule="nonzero"/></clipPath><clipPath id="eafd6fd225"><path d="M 175.222656 2.703125 L 233.914062 2.703125 L 233.914062 71.820312 L 175.222656 71.820312 Z M 175.222656 2.703125 " clip-rule="nonzero"/></clipPath><clipPath id="42925bce99"><path d="M 230.410156 41.707031 C 223.089844 41.691406 216.074219 44.910156 210.488281 49.488281 C 206.089844 53.105469 202.355469 57.546875 199.488281 62.457031 C 198.96875 63.351562 198.480469 64.265625 198.027344 65.195312 C 196.847656 64.742188 195.703125 64.171875 194.628906 63.460938 C 192.9375 62.382812 191.523438 61.113281 190.214844 59.59375 C 191.308594 58.175781 192.292969 56.667969 193.179688 55.113281 C 196.808594 48.71875 198.84375 41.460938 199.234375 34.128906 C 199.414062 31.242188 199.292969 28.296875 198.796875 25.445312 C 197.550781 18.128906 194.34375 11.203125 189.941406 5.261719 C 189.757812 5.027344 189.503906 4.6875 189.308594 4.457031 C 189.308594 4.457031 189.34375 4.429688 189.34375 4.429688 L 188.054688 2.875 L 186.640625 4.371094 C 184.832031 6.292969 183.273438 8.4375 181.886719 10.675781 C 178.265625 16.527344 175.914062 23.257812 175.503906 30.160156 C 174.859375 41.59375 178.074219 53.601562 185.714844 62.367188 C 189.1875 66.691406 194.136719 69.832031 199.578125 70.972656 C 206.332031 72.464844 213.59375 70.871094 219.289062 67.007812 C 225.875 62.46875 230.597656 55.4375 232.722656 47.769531 C 233.035156 46.65625 233.28125 45.503906 233.460938 44.347656 C 233.511719 43.957031 233.695312 42.457031 233.746094 42.03125 C 232.730469 41.902344 231.453125 41.703125 230.417969 41.707031 M 186.617188 6.78125 C 186.621094 6.792969 186.632812 6.796875 186.640625 6.808594 C 186.632812 6.808594 186.582031 6.808594 186.582031 6.808594 C 186.582031 6.808594 186.617188 6.78125 186.617188 6.78125 M 180.300781 29.5 C 180.703125 21.953125 183.578125 14.644531 187.992188 8.535156 C 191.601562 13.476562 194.34375 19.113281 195.667969 25.097656 C 196.398438 28.3125 196.582031 31.625 196.410156 34.914062 C 196.082031 41.558594 194.335938 48.148438 191.195312 54.023438 C 190.476562 55.351562 189.6875 56.65625 188.8125 57.890625 C 182.566406 49.910156 179.886719 39.589844 180.300781 29.5 M 219.457031 61.054688 C 214.648438 65.316406 207.882812 67.261719 201.644531 66.191406 C 203.9375 61.636719 207.121094 57.511719 210.816406 54.023438 C 215.867188 49.269531 222.476562 45.585938 229.496094 45.320312 C 227.789062 51.386719 224.242188 56.972656 219.457031 61.054688 " clip-rule="nonzero"/></clipPath><clipPath id="2ceae88367"><path d="M 246.984375 116.664062 L 249.769531 116.664062 L 249.769531 128.785156 L 246.984375 128.785156 Z M 246.984375 128.785156 L 255.726562 128.785156 L 255.726562 131.132812 L 246.984375 131.132812 Z M 246.984375 128.785156 " clip-rule="nonzero"/></clipPath><clipPath id="4c9f9aca36"><path d="M 238.460938 141.1875 L 276.972656 141.1875 L 276.972656 184.648438 L 238.460938 184.648438 Z M 238.460938 141.1875 " clip-rule="nonzero"/></clipPath><clipPath id="c3f7153576"><path d="M 276.828125 177.773438 C 274.265625 180.503906 269.402344 184.542969 260.316406 184.542969 C 248.082031 184.542969 238.460938 175.21875 238.460938 162.746094 C 238.460938 149.621094 249.152344 141.1875 260.671875 141.1875 C 269.222656 141.1875 274.152344 145.046875 276.707031 147.421875 L 271.835938 153.242188 C 270.113281 151.523438 266.25 148.371094 260.785156 148.371094 C 252.945312 148.371094 247.070312 154.726562 247.070312 162.6875 C 247.070312 170.40625 252.296875 177.238281 260.90625 177.238281 C 265.714844 177.238281 270.050781 174.5625 271.949219 172.546875 Z M 276.828125 177.773438 " clip-rule="nonzero"/></clipPath><clipPath id="d25e59ebde"><path d="M 278.90625 116.664062 L 287.933594 116.664062 L 287.933594 119.015625 L 278.90625 119.015625 Z M 278.90625 119.015625 L 281.6875 119.015625 L 281.6875 122.621094 L 278.90625 122.621094 Z M 278.90625 122.621094 L 286.839844 122.621094 L 286.839844 124.972656 L 278.90625 124.972656 Z M 278.90625 124.972656 L 281.6875 124.972656 L 281.6875 128.785156 L 278.90625 128.785156 Z M 278.90625 128.785156 L 288.140625 128.785156 L 288.140625 131.136719 L 278.90625 131.136719 Z M 278.90625 128.785156 " clip-rule="nonzero"/></clipPath><clipPath id="1c87cddeb2"><path d="M 290.121094 142.019531 L 298.136719 142.019531 L 298.136719 183.710938 L 290.121094 183.710938 Z M 290.121094 142.019531 " clip-rule="nonzero"/></clipPath><clipPath id="4882e68b00"><path d="M 309.835938 141.605469 L 351.269531 141.605469 L 351.269531 183.847656 L 309.835938 183.847656 Z M 309.835938 141.605469 " clip-rule="nonzero"/></clipPath><clipPath id="8667be60b8"><path d="M 309.835938 183.710938 L 329.136719 141.605469 L 331.925781 141.605469 L 351.109375 183.710938 L 342.261719 183.710938 L 339.113281 176.941406 L 321.890625 176.941406 L 318.742188 183.710938 Z M 324.742188 170.289062 L 336.203125 170.289062 L 330.5 156.871094 Z M 324.742188 170.289062 " clip-rule="nonzero"/></clipPath><clipPath id="0ef9933604"><path d="M 311.316406 120.683594 L 317.113281 120.683594 L 317.113281 126.480469 L 311.316406 126.480469 Z M 311.316406 120.683594 " clip-rule="nonzero"/></clipPath><clipPath id="8fe66d2dd8"><path d="M 314.203125 120.683594 C 312.609375 120.683594 311.316406 121.976562 311.316406 123.570312 C 311.316406 125.164062 312.609375 126.457031 314.203125 126.457031 C 315.796875 126.457031 317.089844 125.164062 317.089844 123.570312 C 317.089844 121.976562 315.796875 120.683594 314.203125 120.683594 " clip-rule="nonzero"/></clipPath></defs><g clip-path="url(#2e336279b4)"><g clip-path="url(#34eacb0665)"><path fill="#ffffff" d="M 52.347656 120.683594 L 58.121094 120.683594 L 58.121094 126.457031 L 52.347656 126.457031 Z M 52.347656 120.683594 " fill-opacity="1" fill-rule="nonzero"/></g></g><g clip-path="url(#2c0b819769)"><g clip-path="url(#d4024c5e32)"><path fill="#ffffff" d="M 15.457031 138.730469 L 103.328125 138.730469 L 103.328125 187 L 15.457031 187 Z M 15.457031 138.730469 " fill-opacity="1" fill-rule="nonzero"/></g></g><g clip-path="url(#1f98ac1162)"><g clip-path="url(#0165f7dc02)"><path fill="#ffffff" d="M 15.457031 138.730469 L 103.328125 138.730469 L 103.328125 187 L 15.457031 187 Z M 15.457031 138.730469 " fill-opacity="1" fill-rule="nonzero"/></g></g><g clip-path="url(#cfab863366)"><path fill="#ffffff" d="M 81.875 116.664062 L 90.613281 116.664062 L 90.613281 131.136719 L 81.875 131.136719 Z M 81.875 116.664062 " fill-opacity="1" fill-rule="nonzero"/></g><g clip-path="url(#6a148f2eb4)"><g clip-path="url(#378e4f0597)"><path fill="#ffffff" d="M 112.597656 116.519531 L 126.921875 116.519531 L 126.921875 131.125 L 112.597656 131.125 Z M 112.597656 116.519531 " fill-opacity="1" fill-rule="nonzero"/></g></g><g clip-path="url(#dcab3a448b)"><path fill="#ffffff" d="M 111.621094 142.019531 L 136.800781 142.019531 L 136.800781 183.726562 L 111.621094 183.726562 Z M 111.621094 142.019531 " fill-opacity="1" fill-rule="nonzero"/></g><g clip-path="url(#f2d0530174)"><g clip-path="url(#3e4365244e)"><path fill="#ffffff" d="M 145.832031 116.664062 L 159.726562 116.664062 L 159.726562 131.261719 L 145.832031 131.261719 Z M 145.832031 116.664062 " fill-opacity="1" fill-rule="nonzero"/></g></g><g clip-path="url(#dab88da33d)"><g clip-path="url(#cf7ffa5ed4)"><path fill="#ffffff" d="M 150.101562 142.019531 L 176.707031 142.019531 L 176.707031 183.695312 L 150.101562 183.695312 Z M 150.101562 142.019531 " fill-opacity="1" fill-rule="nonzero"/></g></g><g clip-path="url(#4c56f7377e)"><path fill="#ffffff" d="M 182.492188 116.664062 L 191.726562 116.664062 L 191.726562 131.128906 L 182.492188 131.128906 Z M 182.492188 116.664062 " fill-opacity="1" fill-rule="nonzero"/></g><g clip-path="url(#1918fdad40)"><g clip-path="url(#d9a8e1792c)"><path fill="#ffffff" d="M 190.480469 141.425781 L 225.339844 141.425781 L 225.339844 184.320312 L 190.480469 184.320312 Z M 190.480469 141.425781 " fill-opacity="1" fill-rule="nonzero"/></g></g><g clip-path="url(#c2f215516e)"><path fill="#ffffff" d="M 215.070312 116.664062 L 223.808594 116.664062 L 223.808594 131.136719 L 215.070312 131.136719 Z M 215.070312 116.664062 " fill-opacity="1" fill-rule="nonzero"/></g><g clip-path="url(#9dcb9c8a84)"><g clip-path="url(#cb538fe615)"><path fill="#ffffff" d="M 137.769531 0 L 236.617188 0 L 236.617188 104.253906 L 137.769531 104.253906 Z M 137.769531 0 " fill-opacity="1" fill-rule="nonzero"/></g></g><g clip-path="url(#eafd6fd225)"><g clip-path="url(#42925bce99)"><path fill="#ffffff" d="M 137.769531 0 L 236.617188 0 L 236.617188 104.253906 L 137.769531 104.253906 Z M 137.769531 0 " fill-opacity="1" fill-rule="nonzero"/></g></g><g clip-path="url(#2ceae88367)"><path fill="#ffffff" d="M 246.984375 116.664062 L 255.726562 116.664062 L 255.726562 131.136719 L 246.984375 131.136719 Z M 246.984375 116.664062 " fill-opacity="1" fill-rule="nonzero"/></g><g clip-path="url(#4c9f9aca36)"><g clip-path="url(#c3f7153576)"><path fill="#ffffff" d="M 238.460938 141.1875 L 276.824219 141.1875 L 276.824219 184.5 L 238.460938 184.5 Z M 238.460938 141.1875 " fill-opacity="1" fill-rule="nonzero"/></g></g><g clip-path="url(#d25e59ebde)"><path fill="#ffffff" d="M 278.90625 116.664062 L 288.140625 116.664062 L 288.140625 131.128906 L 278.90625 131.128906 Z M 278.90625 116.664062 " fill-opacity="1" fill-rule="nonzero"/></g><g clip-path="url(#1c87cddeb2)"><path fill="#ffffff" d="M 290.121094 142.019531 L 298.136719 142.019531 L 298.136719 183.703125 L 290.121094 183.703125 Z M 290.121094 142.019531 " fill-opacity="1" fill-rule="nonzero"/></g><g clip-path="url(#4882e68b00)"><g clip-path="url(#8667be60b8)"><path fill="#ffffff" d="M 309.835938 141.605469 L 351.109375 141.605469 L 351.109375 183.6875 L 309.835938 183.6875 Z M 309.835938 141.605469 " fill-opacity="1" fill-rule="nonzero"/></g></g><g clip-path="url(#0ef9933604)"><g clip-path="url(#8fe66d2dd8)"><path fill="#ffffff" d="M 311.316406 120.683594 L 317.089844 120.683594 L 317.089844 126.457031 L 311.316406 126.457031 Z M 311.316406 120.683594 " fill-opacity="1" fill-rule="nonzero"/></g></g></svg>