<svg width="182" height="50" viewBox="0 0 182 50" fill="none" xmlns="http://www.w3.org/2000/svg">
<g clip-path="url(#clip0_39_44)">
<path d="M21 0L0 22.094V50H9.36437V40.5541L13.054 36.6722V50H15.892V36.6674L19.5816 40.5493V49.9952H22.4184V32.4493L26.108 28.5687V50H28.946V28.565L32.6356 32.4457V50H42V22.094L21 0ZM19.5816 36.3312L15.892 32.4505V19.3126L19.5816 15.432V36.3312ZM26.108 24.3458L22.4184 28.2276V15.432L26.108 19.3126V24.3458ZM35.4736 47.0142V31.2134L28.946 24.3458V18.0755L21 9.71557L13.054 18.0755V32.4505L6.52758 39.317V47.0142H2.83908V23.3312L21 4.2241L39.1609 23.3312V47.0142H35.4736Z" fill="#ED6325"/>
</g>
<path d="M64.22 19H69.38V40H64.22V19ZM88.3194 19H93.2094V41.05L78.6894 28.18V40H73.8294V17.95L88.3194 30.82V19ZM101.968 29.5C101.968 30.78 102.258 31.89 102.838 32.83C103.418 33.75 104.178 34.45 105.118 34.93C106.078 35.41 107.128 35.65 108.268 35.65C109.268 35.65 110.148 35.52 110.908 35.26C111.668 35 112.348 34.66 112.948 34.24C113.548 33.82 114.078 33.37 114.538 32.89V38.35C113.698 39.01 112.778 39.53 111.778 39.91C110.778 40.29 109.508 40.48 107.968 40.48C106.288 40.48 104.738 40.22 103.318 39.7C101.898 39.18 100.678 38.43 99.6577 37.45C98.6377 36.47 97.8477 35.31 97.2877 33.97C96.7277 32.63 96.4477 31.14 96.4477 29.5C96.4477 27.86 96.7277 26.37 97.2877 25.03C97.8477 23.69 98.6377 22.53 99.6577 21.55C100.678 20.57 101.898 19.82 103.318 19.3C104.738 18.78 106.288 18.52 107.968 18.52C109.508 18.52 110.778 18.71 111.778 19.09C112.778 19.47 113.698 19.99 114.538 20.65V26.11C114.078 25.63 113.548 25.18 112.948 24.76C112.348 24.32 111.668 23.98 110.908 23.74C110.148 23.48 109.268 23.35 108.268 23.35C107.128 23.35 106.078 23.59 105.118 24.07C104.178 24.55 103.418 25.25 102.838 26.17C102.258 27.09 101.968 28.2 101.968 29.5ZM118.683 19H123.753V35.65H132.183V40H118.683V19ZM134.383 19H139.453V32.74C139.453 33.8 139.733 34.66 140.293 35.32C140.853 35.98 141.693 36.31 142.813 36.31C143.953 36.31 144.803 35.98 145.363 35.32C145.923 34.66 146.203 33.8 146.203 32.74V19H151.273V33.1C151.273 34.42 151.053 35.57 150.613 36.55C150.193 37.53 149.593 38.34 148.813 38.98C148.053 39.6 147.153 40.07 146.113 40.39C145.093 40.71 143.993 40.87 142.813 40.87C141.633 40.87 140.533 40.71 139.513 40.39C138.493 40.07 137.593 39.6 136.813 38.98C136.053 38.34 135.453 37.53 135.013 36.55C134.593 35.57 134.383 34.42 134.383 33.1V19ZM159.348 29.56V27.34H162.738C163.318 27.34 163.808 27.25 164.208 27.07C164.628 26.89 164.948 26.64 165.168 26.32C165.388 25.98 165.498 25.57 165.498 25.09C165.498 24.37 165.258 23.83 164.778 23.47C164.298 23.11 163.618 22.93 162.738 22.93H160.638V36.07H163.218C163.878 36.07 164.468 35.99 164.988 35.83C165.508 35.65 165.918 35.37 166.218 34.99C166.538 34.59 166.698 34.05 166.698 33.37C166.698 32.93 166.608 32.55 166.428 32.23C166.248 31.91 165.998 31.65 165.678 31.45C165.358 31.25 164.988 31.11 164.568 31.03C164.168 30.93 163.718 30.88 163.218 30.88H159.348V28.12H163.788C164.808 28.12 165.798 28.23 166.758 28.45C167.718 28.67 168.588 29.03 169.368 29.53C170.148 30.01 170.768 30.63 171.228 31.39C171.708 32.13 171.948 33.03 171.948 34.09C171.948 35.49 171.608 36.62 170.928 37.48C170.268 38.34 169.328 38.98 168.108 39.4C166.888 39.8 165.448 40 163.788 40H155.568V19H163.278C164.738 19 166.018 19.2 167.118 19.6C168.238 19.98 169.118 20.57 169.758 21.37C170.418 22.15 170.748 23.14 170.748 24.34C170.748 25.44 170.418 26.38 169.758 27.16C169.118 27.94 168.238 28.54 167.118 28.96C166.018 29.36 164.738 29.56 163.278 29.56H159.348Z" fill="white"/>
<defs>
<clipPath id="clip0_39_44">
<rect width="42" height="50" fill="white"/>
</clipPath>
</defs>
</svg>
